<svg xmlns="http://www.w3.org/2000/svg" viewBox="0 0 160 120" fill="none">
  <ellipse cx="80" cy="110" rx="54" ry="8" fill="#120e22" opacity=".3"/>
  <rect x="18" y="58" width="124" height="40" rx="16" fill="#c45c7a"/>
  <path d="M36 58c10-22 78-22 88 0H36z" fill="#5a3d8c"/>
  <rect x="50" y="38" width="60" height="20" rx="5" fill="#3d2a6e"/>
  <circle cx="40" cy="96" r="13" fill="#2a1840"/>
  <circle cx="120" cy="96" r="13" fill="#2a1840"/>
  <circle cx="40" cy="96" r="5" fill="#5a4a86"/>
  <circle cx="120" cy="96" r="5" fill="#5a4a86"/>
  <rect x="26" y="70" width="18" height="10" rx="3" fill="#c45c7a"/>
  <rect x="26" y="72" width="18" height="6" rx="2" fill="#ff8aa0"/>
  <rect x="116" y="70" width="18" height="10" rx="3" fill="#c45c7a"/>
  <rect x="116" y="72" width="18" height="6" rx="2" fill="#ff8aa0"/>
  <rect x="70" y="80" width="20" height="8" rx="2" fill="#f4d27a"/>
</svg>
